<?xml version="1.0" encoding="utf-8"?>
<!-- Generator: Adobe Illustrator 16.0.0, SVG Export Plug-In . SVG Version: 6.00 Build 0)  -->
<!DOCTYPE svg PUBLIC "-//W3C//DTD SVG 1.1//EN" "http://www.w3.org/Graphics/SVG/1.1/DTD/svg11.dtd">
<svg version="1.1" xmlns="http://www.w3.org/2000/svg" xmlns:xlink="http://www.w3.org/1999/xlink" x="0px" y="0px"
	 width="259.35px" height="98.97px" viewBox="0 0 259.35 98.97" enable-background="new 0 0 259.35 98.97" xml:space="preserve">
<g id="Layer_4">
	<path fill-rule="evenodd" clip-rule="evenodd" d="M11.68,70.962l-4.237-4.798V20.273L0,14.676V0.125h11.693V9.08l10.739-0.079
		L22.37,0h13.773l0.005,9.08h10.633L46.755,0h12.786v14.75l-7.442,5.523v47.013L27.642,74C27.642,74,18.666,76.823,11.68,70.962z"/>
</g>
<g id="Layer_3">
	<polygon points="259.35,98.97 7.44,98.97 7.44,59.606 253.934,59.606 259.351,51.637 259.35,59.606 	"/>
</g>
<g id="Layer_2">
	<g>
		<path fill="#FFFFFF" d="M35.882,93.233c-3.043-0.13-4.926-0.195-5.647-0.195c-0.387,0-1.16,0.026-2.321,0.078
			c-1.522,0.053-2.746,0.092-3.675,0.117v-0.897c1.805-0.025,2.708-0.598,2.708-1.716c0-0.728-0.722-2.821-2.166-6.279h-9.052
			c-1.109,2.898-1.663,4.903-1.663,6.016c0,1.216,0.902,1.876,2.708,1.979v0.897c-0.877-0.025-1.999-0.064-3.365-0.117
			c-1.058-0.052-1.741-0.078-2.05-0.078c-0.439,0-1.779,0.065-4.023,0.195v-0.897c1.215-0.078,2.263-0.701,3.142-1.869
			c0.543-0.752,1.396-2.375,2.56-4.868c3.725-8.021,6.285-14.173,7.682-18.457h2.444c2.394,7.302,5.121,14.214,8.184,20.736
			c0.717,1.538,1.306,2.568,1.768,3.089c0.666,0.782,1.588,1.238,2.767,1.369V93.233z M23.968,82.353
			c-1.161-2.86-2.359-6.058-3.597-9.594c-0.155,0.442-1.431,3.641-3.83,9.594H23.968z"/>
		<path fill="#FFFFFF" d="M36.578,67.416c4.1-0.39,7.543-0.585,10.328-0.585c3.816,0,6.55,0.546,8.201,1.638
			c1.753,1.17,2.63,3.133,2.63,5.889c0,2.652-0.935,4.738-2.805,6.259s-4.52,2.282-7.949,2.282c-0.722,0-1.264,0-1.625,0
			c0,4.221,0.245,6.9,0.735,8.04c0.206,0.492,0.593,0.829,1.16,1.01c0.335,0.13,1.108,0.272,2.321,0.427v0.858
			c-3.069-0.104-5.402-0.156-7.001-0.156c-1.909,0-3.907,0.052-5.996,0.156v-0.858c1.405-0.13,2.351-0.344,2.836-0.644
			c0.485-0.299,0.818-0.942,0.997-1.931c0.256-1.273,0.396-2.847,0.422-4.719c0,1.04,0-0.533,0-4.719v-2.184
			c0-3.925-0.142-6.448-0.425-7.566c-0.362-1.534-1.225-2.301-2.592-2.301c-0.361,0-0.773,0.039-1.238,0.117V67.416z M45.359,80.675
			c0.872,0.208,1.642,0.312,2.309,0.312c3.334,0,5.002-1.846,5.002-5.538c0-4.498-2.219-6.747-6.657-6.747c-0.025,0-0.103,0-0.231,0
			c-0.128,0.026-0.244,0.039-0.346,0.039C45.384,69.443,45.359,73.421,45.359,80.675z"/>
		<path fill="#FFFFFF" d="M83.266,93.233c-3.043-0.13-4.926-0.195-5.647-0.195c-0.387,0-1.16,0.026-2.321,0.078
			c-1.522,0.053-2.746,0.092-3.675,0.117v-0.897c1.805-0.025,2.708-0.598,2.708-1.716c0-0.728-0.722-2.821-2.166-6.279h-9.052
			c-1.109,2.898-1.663,4.903-1.663,6.016c0,1.216,0.902,1.876,2.708,1.979v0.897c-0.877-0.025-1.999-0.064-3.365-0.117
			c-1.058-0.052-1.741-0.078-2.05-0.078c-0.439,0-1.779,0.065-4.023,0.195v-0.897c1.215-0.078,2.263-0.701,3.142-1.869
			c0.543-0.752,1.396-2.375,2.56-4.868c3.725-8.021,6.285-14.173,7.682-18.457h2.444c2.394,7.302,5.121,14.214,8.184,20.736
			c0.717,1.538,1.306,2.568,1.768,3.089c0.666,0.782,1.588,1.238,2.767,1.369V93.233z M71.353,82.353
			c-1.161-2.86-2.359-6.058-3.597-9.594c-0.155,0.442-1.431,3.641-3.83,9.594H71.353z"/>
		<path fill="#FFFFFF" d="M111.619,92.258c-2.063,0.884-4.049,1.326-5.957,1.326c-1.6,0-3.263-0.985-4.99-2.954
			c-1.496-1.685-3.43-4.613-5.802-8.785h-2.089v1.482c0,3.952,0.232,6.474,0.696,7.566c0.206,0.494,0.58,0.845,1.122,1.053
			c0.361,0.13,1.147,0.273,2.359,0.429v0.858l-7.001-0.156c-1.832,0-3.83,0.052-5.996,0.156v-0.858
			c1.418-0.13,2.366-0.344,2.843-0.644c0.477-0.299,0.818-0.956,1.025-1.97c0.257-1.273,0.387-4.407,0.387-9.399v-2.184
			c0-3.952-0.142-6.487-0.425-7.605c-0.387-1.534-1.277-2.301-2.669-2.301c-0.335,0-0.723,0.039-1.161,0.117v-0.975
			c3.533-0.39,7.233-0.585,11.102-0.585c3.404,0,5.924,0.519,7.562,1.558c1.637,1.038,2.456,2.687,2.456,4.945
			c0,3.765-1.87,6.205-5.608,7.32c2.295,3.687,4.268,6.374,5.918,8.061c1.805,1.869,3.456,2.804,4.951,2.804
			c0.335,0,0.696-0.026,1.083-0.078L111.619,92.258z M92.782,79.778c0.773,0.052,1.482,0.078,2.127,0.078
			c3.404,0,5.106-1.794,5.106-5.382c0-0.936-0.168-1.781-0.503-2.535c-0.594-2.158-2.811-3.237-6.653-3.237
			C92.807,69.407,92.782,73.099,92.782,79.778z"/>
		<path fill="#FFFFFF" d="M130.379,72.407h-0.773c-0.104-1.222-0.587-2.06-1.451-2.515c-0.864-0.455-2.301-0.683-4.313-0.683
			c-0.077,0-0.735,0.026-1.973,0.078c-0.155,2.028-0.232,5.746-0.232,11.154c0,5.824,0.245,9.308,0.735,10.452
			c0.206,0.494,0.58,0.845,1.122,1.053c0.387,0.13,1.173,0.273,2.36,0.429v0.858l-6.73-0.156c-1.677,0-3.766,0.052-6.267,0.156
			v-0.858c1.341-0.156,2.218-0.338,2.63-0.546c0.516-0.26,0.89-0.767,1.122-1.521c0.335-1.066,0.503-4.381,0.503-9.945
			c0-3.484-0.077-7.176-0.232-11.076c-1.083-0.052-1.599-0.078-1.547-0.078c-1.96,0-3.365,0.195-4.216,0.585
			c-0.98,0.442-1.638,1.274-1.973,2.496l-0.773-0.156l0.464-2.886c0.154-0.936,0.309-1.508,0.464-1.716
			c0.232-0.312,0.735-0.468,1.509-0.468c0.516,0,1.721,0.052,3.617,0.156c1.895,0.104,3.526,0.156,4.893,0.156
			c1.959,0,4.899-0.104,8.819-0.312c1.366,0,2.114,0.728,2.243,2.184V72.407z"/>
		<path fill="#FFFFFF" d="M164.998,93.233l-6.73-0.156c-0.902,0-3.004,0.052-6.305,0.156v-0.897c1.186-0.13,1.973-0.26,2.359-0.39
			c0.566-0.182,0.953-0.52,1.16-1.014c0.49-1.092,0.736-4.641,0.736-10.647v-6.552c0-0.025,0.063-0.52,0.193-1.482
			c-5.365,11.622-8.111,17.888-8.24,18.798h-2.9c-1.445-4.237-4.217-10.556-8.316-18.954c0.076,0.702,0.115,1.482,0.115,2.34
			c0,8.45,0.207,13.52,0.619,15.21c0.438,1.768,1.766,2.666,3.984,2.691v0.897c-0.906-0.025-1.98-0.064-3.223-0.117
			c-0.984-0.052-1.605-0.078-1.863-0.078c-0.207,0-0.828,0.026-1.863,0.078c-1.294,0.053-2.472,0.092-3.533,0.117v-0.897
			c1.25-0.078,2.103-0.273,2.558-0.585c0.456-0.312,0.749-0.936,0.879-1.872c0.339-2.443,0.508-8.398,0.508-17.862
			c0-1.482-0.248-2.502-0.742-3.062c-0.495-0.559-1.394-0.839-2.695-0.839h-0.508V67.22c2.694,0.078,4.545,0.117,5.557,0.117
			c-0.105,0,1.113-0.039,3.652-0.118l7.883,18.255c0.051,0.051,0.063,0.05,0.037-0.002c4.076-8.996,6.566-15.041,7.469-18.135
			c0.619,0.026,2.244,0.039,4.875,0.039c0.129,0,0.664-0.02,1.605-0.059s1.852-0.071,2.729-0.098v0.897
			c-1.16,0.131-1.947,0.273-2.359,0.429c-0.566,0.208-0.953,0.56-1.16,1.053c-0.49,1.144-0.734,4.719-0.734,10.725
			c0,5.928,0.244,9.464,0.734,10.608c0.207,0.494,0.594,0.832,1.16,1.014c0.361,0.13,1.146,0.26,2.359,0.39V93.233z"/>
		<path fill="#FFFFFF" d="M187.085,87.968l-0.464,3.393c-0.13,0.962-0.349,1.56-0.658,1.794c-0.309,0.234-0.928,0.351-1.856,0.351
			c-0.98,0-2.778-0.072-5.396-0.214c-2.618-0.143-4.752-0.214-6.402-0.214c-2.114,0-3.983,0.052-5.608,0.156v-0.858
			c1.212-0.156,1.998-0.299,2.359-0.429c0.567-0.208,0.954-0.546,1.16-1.014c0.49-1.092,0.735-4.615,0.735-10.569
			c0-5.746-0.168-9.151-0.503-10.218c-0.232-0.754-0.606-1.261-1.122-1.521c-0.412-0.208-1.289-0.39-2.63-0.546V67.22
			c1.418,0.104,2.952,0.156,4.604,0.156c3.094,0,6.034-0.052,8.818-0.156c2.785-0.104,4.023-0.156,3.714-0.156
			c1.237,0,1.934,0.728,2.089,2.184v3.159h-0.852c-0.103-1.222-0.612-2.06-1.527-2.515c-0.916-0.455-2.405-0.683-4.468-0.683
			c-1.16,0-2.347,0.039-3.559,0.117v9.36h2.205c2.269,0,3.752-0.143,4.448-0.429c0.799-0.364,1.25-1.17,1.354-2.418h0.89
			c-0.104,1.646-0.154,2.966-0.154,3.958c0,0.889,0.051,2.169,0.154,3.841h-0.89c-0.026-1.299-0.555-2.131-1.586-2.496
			c-0.773-0.26-2.515-0.39-5.222-0.39h-1.199v4.391c0,1.839,0.064,3.121,0.193,3.846c0.154,0.959,0.489,1.568,1.006,1.827
			c0.67,0.363,2.012,0.544,4.022,0.544c1.702,0,2.972-0.26,3.811-0.78c0.838-0.52,1.398-1.443,1.683-2.769L187.085,87.968z"/>
		<path fill="#FFFFFF" d="M217.604,68.117c-1.393,0.078-2.205,0.65-2.437,1.716c-0.31,1.43-0.529,9.23-0.658,23.4h-4.022
			l-1.973-2.652c-7.53-10.114-11.939-16.198-13.229-18.252v1.638c0-2.989-0.115-0.767-0.348,6.669
			c-0.104,3.407,0.129,6.032,0.696,7.878c0.799,2.522,2.23,3.797,4.294,3.822v0.897c-0.877-0.025-1.974-0.064-3.288-0.117
			c-1.006-0.052-1.65-0.078-1.935-0.078c-0.129,0-0.696,0.026-1.702,0.078c-1.237,0.053-2.411,0.092-3.52,0.117v-0.897
			c1.238-0.078,2.082-0.273,2.533-0.585s0.741-0.936,0.871-1.872c0.31-2.184,0.464-7.54,0.464-16.068v-1.794
			c0-1.534-0.23-2.567-0.69-3.101c-0.461-0.533-1.336-0.8-2.625-0.8h-0.553V67.22c1.33,0.078,2.66,0.117,3.991,0.117
			c1.8,0,3.43-0.045,4.892-0.135c1.159,1.973,3.118,4.868,5.875,8.684c2.783,3.894,5.579,7.801,8.389,11.721
			c-0.052-7.302-0.091-11.264-0.117-11.888c-0.103-3.041-0.374-4.976-0.814-5.808c-0.621-1.169-1.915-1.767-3.88-1.793V67.22
			c0.619,0,1.611,0.026,2.979,0.078c1.16,0.052,2.023,0.078,2.592,0.078c0.309,0,0.902-0.026,1.779-0.078
			c0.979-0.025,1.792-0.052,2.437-0.078V68.117z"/>
		<path fill="#FFFFFF" d="M240.078,72.407h-0.774c-0.103-1.222-0.586-2.06-1.45-2.515c-0.864-0.455-2.302-0.683-4.313-0.683
			c-0.078,0-0.735,0.026-1.973,0.078c-0.155,2.028-0.232,5.746-0.232,11.154c0,5.824,0.245,9.308,0.735,10.452
			c0.206,0.494,0.58,0.845,1.121,1.053c0.387,0.13,1.173,0.273,2.359,0.429v0.858l-6.73-0.156c-1.676,0-3.765,0.052-6.266,0.156
			v-0.858c1.34-0.156,2.217-0.338,2.63-0.546c0.516-0.26,0.89-0.767,1.122-1.521c0.335-1.066,0.503-4.381,0.503-9.945
			c0-3.484-0.078-7.176-0.232-11.076c-1.083-0.052-1.6-0.078-1.547-0.078c-1.96,0-3.365,0.195-4.217,0.585
			c-0.98,0.442-1.638,1.274-1.973,2.496l-0.773-0.156l0.464-2.886c0.155-0.936,0.31-1.508,0.465-1.716
			c0.231-0.312,0.734-0.468,1.508-0.468c0.516,0,1.722,0.052,3.617,0.156c1.896,0.104,3.525,0.156,4.893,0.156
			c1.96,0,4.899-0.104,8.819-0.312c1.367,0,2.114,0.728,2.244,2.184V72.407z"/>
		<path fill="#FFFFFF" d="M256.287,73.343c-0.643-3.067-2.583-4.602-5.82-4.602c-2.955,0-4.434,1.353-4.434,4.056
			c0,1.457,0.477,2.496,1.428,3.12c0.565,0.364,2.057,0.91,4.474,1.638c2.854,0.858,4.757,1.704,5.709,2.535
			c1.208,1.066,1.813,2.756,1.813,5.07c0,2.652-0.965,4.771-2.896,6.357c-1.93,1.586-4.554,2.379-7.873,2.379
			c-3.165,0-5.532-0.494-7.103-1.482c0-1.378,0-2.782,0-4.212v-1.443h1.09c0.025,1.6,0.661,2.845,1.906,3.735
			c1.245,0.891,3.021,1.335,5.33,1.335c3.346,0,5.02-1.583,5.02-4.751c0-1.22-0.31-2.18-0.929-2.881
			c-0.619-0.701-1.65-1.285-3.095-1.753c-1.314-0.416-2.649-0.844-4.003-1.285c-1.354-0.441-2.418-0.96-3.191-1.558
			c-1.419-1.116-2.128-2.751-2.128-4.906c0-2.466,0.902-4.432,2.708-5.899c1.805-1.467,4.294-2.201,7.466-2.201
			c1.959,0,3.829,0.326,5.608,0.975c-0.104,1.066-0.154,2.314-0.154,3.744c0,0.884,0.013,1.56,0.038,2.028H256.287z"/>
	</g>
</g>
<g id="Layer_1">
	<g>
		<path fill="#FFFFFF" d="M51.307,58.648c-5.281,2.763-11.304,4.144-18.072,4.144c-8.161,0-14.376-2.156-18.648-6.471
			c-4.273-4.313-6.408-10.565-6.408-18.757c0-7.949,2.508-14.213,7.524-18.794c5.016-4.58,11.94-6.87,20.772-6.87
			c4.943,0,9.576,0.994,13.896,2.981c-0.385,2.715-0.625,6.519-0.72,11.414h-2.016c-1.488-7.027-6.073-10.542-13.752-10.542
			c-10.848,0-16.272,7.004-16.272,21.011c0,6.786,1.847,12.032,5.544,15.74c3.696,3.708,8.903,5.562,15.624,5.562
			c3.744,0,7.512-0.702,11.304-2.108L51.307,58.648z"/>
		<path d="M104.443,61.483c-5.665-0.242-9.169-0.363-10.512-0.363c-0.72,0-2.16,0.049-4.32,0.145
			c-2.833,0.098-5.112,0.17-6.84,0.218v-1.672c3.359-0.047,5.04-1.114,5.04-3.199c0-1.356-1.344-5.258-4.032-11.705H66.931
			c-2.064,5.403-3.096,9.14-3.096,11.214c0,2.268,1.68,3.497,5.04,3.689v1.672c-1.632-0.048-3.72-0.121-6.264-0.218
			c-1.969-0.096-3.24-0.145-3.816-0.145c-0.817,0-3.312,0.121-7.488,0.363v-1.672c2.262-0.145,4.212-1.306,5.849-3.484
			c1.01-1.403,2.599-4.428,4.766-9.074C68.854,32.3,73.619,20.832,76.219,12.845h4.549c4.455,13.613,9.532,26.498,15.234,38.656
			c1.334,2.867,2.431,4.787,3.291,5.758c1.24,1.458,2.957,2.309,5.15,2.551V61.483z M82.267,41.199
			c-2.16-5.331-4.392-11.292-6.696-17.885c-0.288,0.825-2.664,6.787-7.128,17.885H82.267z"/>
		<path d="M134.329,24.405c-1.196-5.719-4.807-8.579-10.833-8.579c-5.501,0-8.252,2.521-8.252,7.561
			c0,2.715,0.885,4.653,2.656,5.816c1.053,0.679,3.829,1.697,8.329,3.053c5.313,1.6,8.854,3.175,10.625,4.726
			c2.249,1.988,3.374,5.138,3.374,9.452c0,4.944-1.796,8.895-5.389,11.851c-3.592,2.957-8.477,4.435-14.655,4.435
			c-5.892,0-10.298-0.921-13.22-2.763c0-2.568,0-5.186,0-7.852v-2.69h2.027c0.048,2.983,1.232,5.304,3.549,6.962
			c2.317,1.66,5.624,2.489,9.921,2.489c6.228,0,9.342-2.951,9.342-8.856c0-2.274-0.576-4.065-1.728-5.371
			c-1.152-1.306-3.072-2.396-5.76-3.267c-2.448-0.775-4.932-1.573-7.452-2.396c-2.52-0.822-4.5-1.79-5.94-2.903
			c-2.64-2.081-3.96-5.13-3.96-9.147c0-4.596,1.68-8.262,5.04-10.996c3.359-2.734,7.992-4.102,13.896-4.102
			c3.647,0,7.128,0.606,10.44,1.817c-0.192,1.988-0.288,4.314-0.288,6.979c0,1.648,0.023,2.908,0.072,3.781H134.329z"/>
		<path d="M180.547,22.66h-1.439c-0.193-2.277-1.093-3.841-2.7-4.689c-1.608-0.848-4.284-1.272-8.028-1.272
			c-0.145,0-1.367,0.049-3.672,0.146c-0.288,3.78-0.432,10.712-0.432,20.793c0,10.857,0.455,17.352,1.367,19.484
			c0.385,0.921,1.08,1.576,2.088,1.963c0.721,0.243,2.184,0.509,4.393,0.8v1.6l-12.528-0.291c-3.121,0-7.009,0.098-11.664,0.291
			v-1.6c2.495-0.291,4.127-0.629,4.896-1.018c0.959-0.484,1.656-1.429,2.088-2.835c0.623-1.987,0.936-8.167,0.936-18.539
			c0-6.495-0.144-13.377-0.432-20.647c-2.016-0.097-2.977-0.146-2.88-0.146c-3.648,0-6.264,0.363-7.848,1.09
			c-1.825,0.825-3.049,2.375-3.672,4.653l-1.44-0.291l0.864-5.38c0.288-1.745,0.576-2.811,0.864-3.199
			c0.432-0.582,1.368-0.872,2.808-0.872c0.96,0,3.204,0.098,6.732,0.291c3.528,0.194,6.563,0.291,9.108,0.291
			c3.646,0,9.119-0.193,16.416-0.582c2.543,0,3.936,1.357,4.176,4.071V22.66z"/>
		<path d="M220.074,51.668l-0.863,6.325c-0.241,1.794-0.648,2.908-1.225,3.344c-0.575,0.437-1.728,0.654-3.456,0.654
			c-1.056,0-4.38-0.134-9.972-0.4c-5.593-0.266-10.645-0.4-15.156-0.4c-0.528,0-2.951,0.098-7.271,0.291v-1.6
			c2.639-0.242,4.402-0.642,5.292-1.199c0.888-0.557,1.522-1.756,1.907-3.599c0.48-2.326,0.721-8.19,0.721-17.594
			c0-9.693-0.24-15.704-0.721-18.03c-0.385-1.89-1.02-3.114-1.907-3.671c-0.89-0.557-2.653-0.957-5.292-1.2v-1.6
			c4.079,0.194,8.231,0.291,12.456,0.291c3.983,0,7.895-0.097,11.735-0.291v1.6c-3.504,0.049-5.712,1.018-6.624,2.908
			c-0.768,1.552-1.151,5.234-1.151,11.051c0,2.133,0,4.847,0,8.143c0,3.344,0,5.598,0,6.761c0,4.12,0.07,6.787,0.215,7.998
			c0.382,3.829,1.363,5.792,2.942,5.889c2.393,0.436,4.593,0.654,6.602,0.654c3.205,0,5.586-0.484,7.141-1.454
			c1.555-0.969,2.57-2.69,3.05-5.162L220.074,51.668z"/>
		<path d="M259.529,51.668l-0.863,6.325c-0.241,1.794-0.648,2.908-1.225,3.344c-0.575,0.437-1.728,0.654-3.456,0.654
			c-1.824,0-5.172-0.134-10.044-0.4c-4.872-0.266-8.845-0.4-11.916-0.4c-3.937,0-7.416,0.098-10.439,0.291v-1.6
			c2.256-0.291,3.719-0.557,4.392-0.8c1.056-0.387,1.775-1.018,2.16-1.89c0.911-2.036,1.368-8.603,1.368-19.702
			c0-10.711-0.313-17.06-0.937-19.048c-0.432-1.405-1.128-2.35-2.088-2.835c-0.769-0.387-2.4-0.727-4.896-1.018v-1.6
			c2.639,0.194,5.495,0.291,8.567,0.291c5.761,0,11.232-0.097,16.416-0.291c5.185-0.193,7.488-0.291,6.912-0.291
			c2.305,0,3.601,1.357,3.889,4.071v5.889h-1.584c-0.192-2.277-1.142-3.841-2.845-4.689c-1.704-0.848-4.476-1.272-8.315-1.272
			c-2.16,0-4.368,0.073-6.624,0.218v17.448h4.104c4.224,0,6.984-0.266,8.28-0.8c1.487-0.678,2.328-2.181,2.521-4.507h1.655
			c-0.192,3.069-0.288,5.529-0.288,7.379c0,1.656,0.096,4.044,0.288,7.161h-1.655c-0.049-2.423-1.033-3.974-2.952-4.653
			c-1.44-0.484-4.681-0.727-9.721-0.727h-2.231v8.186c0,3.429,0.119,5.819,0.359,7.17c0.288,1.788,0.912,2.923,1.872,3.405
			c1.248,0.677,3.744,1.014,7.488,1.014c3.168,0,5.531-0.484,7.092-1.454c1.56-0.969,2.604-2.69,3.132-5.162L259.529,51.668z"/>
	</g>
</g>
<g id="Layer_5">
	<g>
		<path d="M74.428,1.686c-0.352,0.03-0.634,0.162-0.847,0.396c-0.125,0.14-0.305,0.448-0.539,0.924
			c-1.042,2.09-1.881,4.03-2.519,5.819h-0.825C68.92,6.662,68.114,4.7,67.278,2.94c-0.205-0.425-0.381-0.723-0.528-0.891
			c-0.191-0.213-0.429-0.333-0.715-0.363V1.444c0.557,0.029,1.173,0.044,1.848,0.044c-0.088,0,0.403-0.015,1.474-0.044v0.242
			c-0.499,0.022-0.748,0.198-0.748,0.528c0,0.235,0.183,0.803,0.55,1.705c0.704,1.723,1.158,2.86,1.364,3.41
			c0.792-1.855,1.247-2.933,1.364-3.234c0.337-0.858,0.506-1.448,0.506-1.771c0-0.396-0.242-0.608-0.726-0.638V1.444
			c0.139,0,0.381,0.011,0.726,0.033c0.3,0.015,0.535,0.022,0.704,0.022c0.183,0,0.414-0.007,0.693-0.022
			c0.337-0.022,0.55-0.033,0.638-0.033V1.686z"/>
		<path d="M79.796,4.964c1.095-0.389,1.843-0.583,2.245-0.583c0.175,0,0.263,0.264,0.263,0.792c0,0.066,0,0.18,0,0.341
			c0,0.169,0,0.301,0,0.396v2.904H80.94c0.088-0.763,0.132-1.493,0.132-2.189c0-0.572-0.026-0.953-0.077-1.144
			c-0.073-0.228-0.22-0.341-0.44-0.341c-0.184,0-0.403,0.019-0.66,0.055L79.796,4.964z M82.139,1.477
			c0.073,0.162,0.11,0.345,0.11,0.55c0,0.455-0.066,0.759-0.198,0.913c-0.162,0.19-0.536,0.326-1.122,0.407
			c0.037-0.308,0.055-0.546,0.055-0.715c0-0.315-0.052-0.616-0.154-0.902c0.587-0.198,0.972-0.297,1.155-0.297
			C82.059,1.433,82.11,1.448,82.139,1.477z"/>
		<path d="M88.739,0.842c1.195-0.435,1.984-0.652,2.365-0.652c0.168,0,0.253,0.077,0.253,0.23c0-0.059-0.019,0.145-0.055,0.61
			c-0.037,0.465-0.055,0.961-0.055,1.489c0,0.212,0,0.501,0,0.868c0,0.359,0,0.615,0,0.769v4.68H89.85
			c0.103-0.864,0.154-2.296,0.154-4.295V3.629c0-1.04-0.025-1.713-0.076-2.021c-0.073-0.396-0.233-0.593-0.48-0.593
			c-0.233,0-0.436,0.026-0.611,0.077L88.739,0.842z"/>
		<path d="M97.781,0.842c1.195-0.435,1.983-0.652,2.364-0.652c0.17,0,0.254,0.077,0.254,0.23c0-0.059-0.018,0.145-0.055,0.61
			c-0.037,0.465-0.055,0.961-0.055,1.489c0,0.212,0,0.501,0,0.868c0,0.359,0,0.615,0,0.769v4.68h-1.398
			c0.103-0.864,0.154-2.296,0.154-4.295V3.629c0-1.04-0.025-1.713-0.076-2.021c-0.073-0.396-0.233-0.593-0.48-0.593
			c-0.233,0-0.436,0.026-0.611,0.077L97.781,0.842z"/>
		<path d="M112.533,8.33c-0.785,0.381-1.427,0.572-1.926,0.572c-0.345,0-0.539-0.224-0.583-0.671
			c-0.418,0.447-0.938,0.671-1.562,0.671c-0.353,0-0.629-0.097-0.831-0.292c-0.201-0.194-0.302-0.453-0.302-0.775
			c0-0.455,0.19-0.858,0.571-1.21c0.345-0.322,0.693-0.484,1.046-0.484c0.271,0,0.597,0.077,0.979,0.231
			c0.015-0.177,0.022-0.299,0.022-0.366c0-0.318-0.063-0.545-0.188-0.682s-0.334-0.206-0.627-0.206
			c-0.396,0-0.814,0.077-1.254,0.231l0.077-0.495c0.711-0.315,1.481-0.473,2.31-0.473c0.345,0,0.583,0.07,0.715,0.209
			c0.133,0.139,0.198,0.389,0.198,0.748c0,0.103-0.015,0.304-0.044,0.605s-0.044,0.55-0.044,0.748c0,0.579,0.044,0.973,0.132,1.182
			s0.261,0.313,0.518,0.313c0.146,0,0.377-0.029,0.692-0.088L112.533,8.33z M109.903,7.862c0-0.231,0-0.437,0-0.617
			c0-0.166,0-0.292,0-0.379c-0.267-0.058-0.52-0.086-0.757-0.086c-0.238,0-0.401,0.054-0.487,0.162
			c-0.087,0.108-0.131,0.311-0.131,0.607c0,0.426,0.199,0.639,0.596,0.639C109.383,8.187,109.643,8.079,109.903,7.862z"/>
		<path d="M120.219,4.964c-0.124,0.103-0.186,0.268-0.186,0.495c0,0.184,0.113,0.319,0.339,0.407
			c0.059,0.022,0.369,0.095,0.931,0.22c0.752,0.168,1.128,0.576,1.128,1.221c0,0.484-0.19,0.871-0.571,1.161
			c-0.382,0.29-0.913,0.435-1.596,0.435c-0.587,0-1.1-0.077-1.54-0.231c0.037-0.235,0.073-0.609,0.11-1.122h0.198
			c0.044,0.557,0.564,0.836,1.562,0.836c0.44,0,0.66-0.212,0.66-0.638c0-0.205-0.084-0.355-0.253-0.451
			c-0.132-0.073-0.399-0.154-0.803-0.242c-0.528-0.11-0.888-0.238-1.078-0.385c-0.235-0.176-0.353-0.451-0.353-0.825
			c0-0.477,0.198-0.843,0.595-1.1c0.374-0.242,0.887-0.363,1.54-0.363c0.396,0,0.839,0.077,1.331,0.231
			c-0.059,0.477-0.096,0.851-0.11,1.122h-0.186c-0.029-0.235-0.177-0.435-0.443-0.6s-0.567-0.248-0.903-0.248
			C120.431,4.887,120.307,4.913,120.219,4.964z"/>
		<path d="M141.44,4.381l-0.121,0.682h-1.881v2.546l0.055,2.777l-1.078,0.441l-0.374,0.033c0.11-1.8,0.165-3.732,0.165-5.797h-0.847
			l0.123-0.526c0.297-0.088,0.538-0.252,0.724-0.494c-0.009-0.417-0.018-0.852-0.027-1.306c-0.019-0.41-0.027-0.64-0.027-0.691
			c0-0.366,0.077-0.647,0.231-0.845c0.153-0.198,0.465-0.412,0.935-0.642c0.469-0.23,0.92-0.346,1.353-0.346
			c0.177,0,0.338,0.128,0.484,0.385c0.125,0.22,0.188,0.396,0.188,0.528c0,0.088-0.078,0.182-0.234,0.281s-0.292,0.148-0.407,0.148
			c-0.073,0-0.203-0.108-0.392-0.325c-0.188-0.216-0.349-0.324-0.479-0.324c-0.262,0-0.392,0.744-0.392,2.233
			c0,0.22,0,0.667,0,1.342L141.44,4.381z"/>
		<path d="M152.263,6.465c0,0.743-0.245,1.338-0.736,1.786c-0.491,0.449-1.148,0.673-1.969,0.673c-0.712,0-1.258-0.182-1.64-0.546
			c-0.381-0.364-0.572-0.88-0.572-1.549c0-0.786,0.248-1.398,0.743-1.836c0.495-0.437,1.186-0.656,2.073-0.656
			c0.675,0,1.193,0.184,1.557,0.551C152.083,5.256,152.263,5.782,152.263,6.465z M150.944,6.763c0-1.207-0.426-1.81-1.276-1.81
			c-0.366,0-0.625,0.122-0.775,0.364s-0.226,0.647-0.226,1.214c0,1.207,0.437,1.81,1.31,1.81c0.344,0,0.592-0.125,0.742-0.375
			C150.869,7.716,150.944,7.315,150.944,6.763z"/>
		<path d="M163.297,5.25c-0.199,0.279-0.506,0.448-0.924,0.506c-0.199-0.257-0.393-0.385-0.583-0.385
			c-0.213,0-0.474,0.18-0.781,0.539v2.904h-1.375c0.095-0.719,0.143-1.448,0.143-2.189c0-0.572-0.025-0.953-0.076-1.144
			c-0.074-0.228-0.221-0.341-0.44-0.341c-0.176,0-0.393,0.019-0.649,0.055l-0.099-0.242c1.088-0.381,1.818-0.572,2.19-0.572
			c0.204,0,0.307,0.242,0.307,0.726v0.264c0.656-0.66,1.157-0.99,1.503-0.99C162.844,4.381,163.105,4.671,163.297,5.25z"/>
		<path d="M177.564,5.085c0.871-0.469,1.473-0.704,1.803-0.704c0.184,0,0.342,0.143,0.473,0.429c0.082,0.176,0.236,0.616,0.463,1.32
			c0.191,0.601,0.326,0.99,0.406,1.166c0.111,0.271,0.217,0.407,0.32,0.407c0.16,0,0.326-0.161,0.494-0.482
			c0.199-0.387,0.297-0.859,0.297-1.414c0-0.103-0.006-0.262-0.016-0.477c-0.012-0.216-0.018-0.382-0.018-0.499
			c0-0.358,0.334-0.537,1.002-0.537c0.154,0,0.23,0.081,0.23,0.241c0,0.542-0.143,1.112-0.43,1.712
			c-0.381,0.797-0.795,1.449-1.242,1.953c-0.404,0.454-0.73,0.681-0.979,0.681c-0.25,0-0.459-0.165-0.627-0.495
			c-0.074-0.154-0.238-0.623-0.496-1.408c-0.227-0.704-0.406-1.158-0.539-1.364c-0.16-0.279-0.373-0.418-0.637-0.418
			c-0.104,0-0.238,0.033-0.408,0.099L177.564,5.085z"/>
		<path d="M189.189,4.964c1.096-0.389,1.844-0.583,2.246-0.583c0.176,0,0.262,0.264,0.262,0.792c0,0.066,0,0.18,0,0.341
			c0,0.169,0,0.301,0,0.396v2.904h-1.363c0.088-0.763,0.133-1.493,0.133-2.189c0-0.572-0.027-0.953-0.078-1.144
			c-0.072-0.228-0.219-0.341-0.439-0.341c-0.184,0-0.404,0.019-0.66,0.055L189.189,4.964z M191.533,1.477
			c0.072,0.162,0.109,0.345,0.109,0.55c0,0.455-0.064,0.759-0.197,0.913c-0.162,0.19-0.535,0.326-1.123,0.407
			c0.037-0.308,0.057-0.546,0.057-0.715c0-0.315-0.053-0.616-0.154-0.902c0.586-0.198,0.971-0.297,1.154-0.297
			C191.453,1.433,191.504,1.448,191.533,1.477z"/>
		<path d="M198.135,0.842c1.193-0.435,1.982-0.652,2.363-0.652c0.17,0,0.254,0.077,0.254,0.23c0-0.059-0.018,0.145-0.055,0.61
			c-0.037,0.465-0.055,0.961-0.055,1.489c0,0.212,0,0.501,0,0.868c0,0.359,0,0.615,0,0.769v4.68h-1.398
			c0.104-0.864,0.154-2.296,0.154-4.295V3.629c0-1.04-0.025-1.713-0.076-2.021c-0.072-0.396-0.232-0.593-0.48-0.593
			c-0.232,0-0.436,0.026-0.609,0.077L198.135,0.842z"/>
		<path d="M207.176,0.842c1.195-0.435,1.984-0.652,2.365-0.652c0.168,0,0.252,0.077,0.252,0.23c0-0.059-0.018,0.145-0.055,0.61
			c-0.037,0.465-0.055,0.961-0.055,1.489c0,0.212,0,0.501,0,0.868c0,0.359,0,0.615,0,0.769v4.68h-1.396
			c0.102-0.864,0.154-2.296,0.154-4.295V3.629c0-1.04-0.025-1.713-0.076-2.021c-0.074-0.396-0.234-0.593-0.48-0.593
			c-0.232,0-0.436,0.026-0.611,0.077L207.176,0.842z"/>
		<path d="M221.928,8.33c-0.785,0.381-1.428,0.572-1.926,0.572c-0.346,0-0.539-0.224-0.584-0.671
			c-0.418,0.447-0.938,0.671-1.561,0.671c-0.354,0-0.629-0.097-0.832-0.292c-0.201-0.194-0.301-0.453-0.301-0.775
			c0-0.455,0.189-0.858,0.57-1.21c0.346-0.322,0.693-0.484,1.047-0.484c0.27,0,0.596,0.077,0.979,0.231
			c0.014-0.177,0.021-0.299,0.021-0.366c0-0.318-0.063-0.545-0.188-0.682s-0.334-0.206-0.627-0.206
			c-0.395,0-0.814,0.077-1.254,0.231l0.078-0.495c0.711-0.315,1.48-0.473,2.309-0.473c0.346,0,0.584,0.07,0.715,0.209
			c0.133,0.139,0.199,0.389,0.199,0.748c0,0.103-0.016,0.304-0.045,0.605s-0.043,0.55-0.043,0.748c0,0.579,0.043,0.973,0.131,1.182
			s0.262,0.313,0.518,0.313c0.146,0,0.377-0.029,0.693-0.088L221.928,8.33z M219.297,7.862c0-0.231,0-0.437,0-0.617
			c0-0.166,0-0.292,0-0.379c-0.266-0.058-0.52-0.086-0.756-0.086c-0.238,0-0.402,0.054-0.488,0.162
			c-0.086,0.108-0.131,0.311-0.131,0.607c0,0.426,0.199,0.639,0.596,0.639C218.777,8.187,219.037,8.079,219.297,7.862z"/>
		<path d="M227.701,4.964c1.096-0.389,1.844-0.583,2.244-0.583c0.176,0,0.264,0.264,0.264,0.792c0,0.066,0,0.18,0,0.341
			c0,0.169,0,0.301,0,0.396v2.904h-1.363c0.088-0.763,0.131-1.493,0.131-2.189c0-0.572-0.025-0.953-0.076-1.144
			c-0.074-0.228-0.221-0.341-0.441-0.341c-0.182,0-0.402,0.019-0.658,0.055L227.701,4.964z M230.043,1.477
			c0.074,0.162,0.111,0.345,0.111,0.55c0,0.455-0.066,0.759-0.199,0.913c-0.16,0.19-0.535,0.326-1.121,0.407
			c0.037-0.308,0.055-0.546,0.055-0.715c0-0.315-0.051-0.616-0.154-0.902c0.588-0.198,0.973-0.297,1.156-0.297
			C229.963,1.433,230.014,1.448,230.043,1.477z"/>
		<path d="M243.662,8.308c-0.865,0.396-1.584,0.594-2.156,0.594c-0.219,0-0.371-0.059-0.455-0.176
			c-0.086-0.117-0.127-0.322-0.127-0.616c0-0.073,0.008-0.281,0.021-0.622c0.016-0.341,0.021-0.644,0.021-0.908
			c0-0.535-0.025-0.887-0.076-1.056c-0.059-0.206-0.195-0.308-0.406-0.308c-0.316,0-0.709,0.169-1.178,0.506v3.113h-1.375
			c0.096-0.741,0.143-1.467,0.143-2.178c0-0.586-0.025-0.975-0.076-1.166c-0.074-0.234-0.221-0.352-0.441-0.352
			c-0.189,0-0.414,0.026-0.67,0.077l-0.1-0.237c1.082-0.399,1.807-0.599,2.18-0.599c0.227,0,0.34,0.235,0.34,0.704V5.25
			c0.912-0.579,1.74-0.869,2.484-0.869c0.367,0,0.551,0.158,0.551,0.474c0-0.044-0.023,0.149-0.07,0.58
			c-0.049,0.43-0.072,0.888-0.072,1.373c0,0.53,0.037,0.879,0.111,1.048c0.08,0.206,0.26,0.309,0.537,0.309
			c0.125,0,0.363-0.033,0.717-0.099L243.662,8.308z"/>
		<path d="M251.34,4.964c-0.125,0.103-0.186,0.268-0.186,0.495c0,0.184,0.113,0.319,0.338,0.407c0.059,0.022,0.369,0.095,0.932,0.22
			c0.752,0.168,1.127,0.576,1.127,1.221c0,0.484-0.189,0.871-0.57,1.161c-0.383,0.29-0.914,0.435-1.596,0.435
			c-0.588,0-1.1-0.077-1.541-0.231c0.037-0.235,0.074-0.609,0.111-1.122h0.197c0.045,0.557,0.564,0.836,1.563,0.836
			c0.439,0,0.66-0.212,0.66-0.638c0-0.205-0.084-0.355-0.254-0.451c-0.131-0.073-0.398-0.154-0.803-0.242
			c-0.527-0.11-0.887-0.238-1.078-0.385c-0.234-0.176-0.352-0.451-0.352-0.825c0-0.477,0.197-0.843,0.594-1.1
			c0.375-0.242,0.887-0.363,1.541-0.363c0.395,0,0.838,0.077,1.33,0.231c-0.059,0.477-0.096,0.851-0.109,1.122h-0.186
			c-0.029-0.235-0.178-0.435-0.443-0.6c-0.268-0.165-0.568-0.248-0.904-0.248C251.551,4.887,251.428,4.913,251.34,4.964z"/>
	</g>
	<g>
	</g>
	<g>
	</g>
	<g>
	</g>
	<g>
	</g>
	<g>
	</g>
	<g>
	</g>
</g>
</svg>
