<?xml version="1.0" encoding="utf-8"?>
<!-- Generator: Adobe Illustrator 16.0.0, SVG Export Plug-In . SVG Version: 6.00 Build 0)  -->
<!DOCTYPE svg PUBLIC "-//W3C//DTD SVG 1.1//EN" "http://www.w3.org/Graphics/SVG/1.1/DTD/svg11.dtd">
<svg version="1.1" id="Layer_1" xmlns="http://www.w3.org/2000/svg" xmlns:xlink="http://www.w3.org/1999/xlink" x="0px" y="0px"
	 width="416.743px" height="23.713px" viewBox="0 0 416.743 23.713" enable-background="new 0 0 416.743 23.713"
	 xml:space="preserve">
<g>
	<path fill="#FFFFFF" d="M18.653,3.325c-0.782,0.065-1.41,0.358-1.882,0.88c-0.277,0.31-0.676,0.994-1.198,2.053
		c-2.314,4.646-4.181,8.956-5.598,12.933H8.141c-1.728-4.808-3.521-9.168-5.378-13.079c-0.457-0.945-0.848-1.604-1.173-1.98
		C1.165,3.659,0.636,3.39,0,3.325V2.787c1.238,0.065,2.607,0.098,4.107,0.098c-0.195,0,0.896-0.032,3.276-0.098v0.538
		c-1.108,0.049-1.662,0.44-1.662,1.173c0,0.521,0.407,1.784,1.222,3.789c1.565,3.83,2.575,6.356,3.032,7.579
		c1.76-4.124,2.771-6.52,3.031-7.188c0.75-1.907,1.125-3.219,1.125-3.937c0-0.88-0.538-1.353-1.613-1.417V2.787
		c0.309,0,0.847,0.024,1.613,0.073c0.668,0.033,1.189,0.049,1.564,0.049c0.407,0,0.921-0.016,1.54-0.049
		c0.75-0.049,1.223-0.073,1.418-0.073V3.325z"/>
	<path fill="#FFFFFF" d="M30.583,10.61c2.434-0.863,4.097-1.295,4.99-1.295c0.389,0,0.584,0.586,0.584,1.76c0,0.146,0,0.399,0,0.758
		c0,0.375,0,0.668,0,0.88v6.454h-3.031c0.196-1.694,0.293-3.316,0.293-4.865c0-1.271-0.057-2.118-0.171-2.542
		c-0.163-0.505-0.489-0.758-0.978-0.758c-0.408,0-0.896,0.041-1.467,0.122L30.583,10.61z M35.79,2.86
		c0.163,0.359,0.245,0.767,0.245,1.222c0,1.011-0.146,1.688-0.44,2.029c-0.359,0.424-1.19,0.726-2.494,0.904
		c0.082-0.685,0.122-1.214,0.122-1.589c0-0.7-0.114-1.368-0.342-2.004c1.304-0.44,2.16-0.66,2.567-0.66
		C35.611,2.763,35.725,2.795,35.79,2.86z"/>
	<path fill="#FFFFFF" d="M50.458,1.45C53.115,0.483,54.867,0,55.714,0c0.375,0,0.563,0.171,0.563,0.513
		c0-0.13-0.041,0.322-0.123,1.355s-0.122,2.136-0.122,3.308c0,0.473,0,1.115,0,1.929c0,0.798,0,1.367,0,1.71v10.4h-3.104
		c0.228-1.92,0.342-5.102,0.342-9.545V7.644c0-2.311-0.057-3.808-0.17-4.492c-0.162-0.878-0.517-1.318-1.066-1.318
		c-0.517,0-0.969,0.057-1.357,0.171L50.458,1.45z"/>
	<path fill="#FFFFFF" d="M70.554,1.45C73.21,0.483,74.962,0,75.81,0c0.375,0,0.563,0.171,0.563,0.513
		c0-0.13-0.041,0.322-0.123,1.355s-0.122,2.136-0.122,3.308c0,0.473,0,1.115,0,1.929c0,0.798,0,1.367,0,1.71v10.4h-3.104
		c0.228-1.92,0.342-5.102,0.342-9.545V7.644c0-2.311-0.057-3.808-0.17-4.492c-0.162-0.878-0.517-1.318-1.066-1.318
		c-0.517,0-0.969,0.057-1.357,0.171L70.554,1.45z"/>
	<path fill="#FFFFFF" d="M103.337,18.091c-1.745,0.848-3.17,1.271-4.279,1.271c-0.766,0-1.198-0.497-1.295-1.491
		c-0.929,0.994-2.086,1.491-3.472,1.491c-0.782,0-1.397-0.216-1.846-0.647s-0.672-1.006-0.672-1.724
		c0-1.011,0.424-1.907,1.271-2.689c0.766-0.717,1.54-1.075,2.322-1.075c0.603,0,1.328,0.171,2.176,0.514
		c0.033-0.395,0.049-0.666,0.049-0.814c0-0.707-0.139-1.212-0.416-1.517c-0.277-0.304-0.742-0.456-1.394-0.456
		c-0.88,0-1.809,0.171-2.787,0.513l0.171-1.1c1.581-0.7,3.292-1.051,5.134-1.051c0.766,0,1.296,0.154,1.589,0.464
		c0.293,0.31,0.44,0.864,0.44,1.662c0,0.229-0.033,0.677-0.098,1.345c-0.065,0.669-0.098,1.223-0.098,1.663
		c0,1.287,0.098,2.163,0.293,2.628c0.195,0.464,0.578,0.696,1.149,0.696c0.326,0,0.839-0.064,1.54-0.195L103.337,18.091z
		 M97.494,17.051c0-0.514,0-0.971,0-1.372c0-0.369,0-0.65,0-0.843c-0.594-0.128-1.155-0.192-1.684-0.192
		c-0.53,0-0.891,0.12-1.083,0.36c-0.192,0.241-0.289,0.69-0.289,1.349c0,0.946,0.441,1.42,1.323,1.42
		C96.338,17.773,96.916,17.533,97.494,17.051z"/>
	<path fill="#FFFFFF" d="M120.423,10.61c-0.275,0.229-0.414,0.596-0.414,1.101c0,0.407,0.252,0.709,0.755,0.904
		c0.13,0.049,0.819,0.212,2.068,0.489c1.671,0.375,2.507,1.279,2.507,2.713c0,1.076-0.425,1.936-1.271,2.579
		c-0.848,0.645-2.029,0.966-3.545,0.966c-1.304,0-2.444-0.171-3.423-0.513c0.082-0.521,0.163-1.353,0.245-2.494h0.439
		c0.098,1.239,1.255,1.858,3.472,1.858c0.978,0,1.467-0.473,1.467-1.418c0-0.456-0.188-0.791-0.563-1.003
		c-0.293-0.162-0.889-0.342-1.784-0.537c-1.174-0.245-1.973-0.529-2.396-0.856c-0.522-0.391-0.783-1.002-0.783-1.833
		c0-1.06,0.44-1.874,1.32-2.444c0.831-0.538,1.972-0.807,3.423-0.807c0.88,0,1.866,0.171,2.958,0.513
		c-0.13,1.06-0.211,1.891-0.243,2.494h-0.413c-0.065-0.521-0.394-0.966-0.986-1.333c-0.592-0.366-1.261-0.55-2.006-0.55
		C120.893,10.439,120.617,10.497,120.423,10.61z"/>
	<path fill="#FFFFFF" d="M167.582,9.315l-0.269,1.516h-4.181v5.657l0.122,6.173l-2.396,0.979l-0.831,0.073
		c0.244-4.001,0.366-8.295,0.366-12.883h-1.882l0.272-1.171c0.66-0.195,1.196-0.561,1.609-1.098
		c-0.021-0.927-0.041-1.895-0.061-2.902c-0.041-0.911-0.062-1.423-0.062-1.537c0-0.813,0.171-1.439,0.514-1.878
		c0.342-0.438,1.034-0.914,2.078-1.426c1.042-0.512,2.045-0.769,3.007-0.769c0.391,0,0.749,0.285,1.075,0.855
		c0.277,0.489,0.416,0.88,0.416,1.173c0,0.196-0.174,0.403-0.521,0.624c-0.346,0.22-0.648,0.33-0.905,0.33
		c-0.161,0-0.452-0.24-0.87-0.721c-0.419-0.48-0.773-0.721-1.063-0.721c-0.58,0-0.87,1.654-0.87,4.963c0,0.488,0,1.483,0,2.982
		L167.582,9.315z"/>
	<path fill="#FFFFFF" d="M191.638,13.947c0,1.649-0.546,2.973-1.638,3.97c-1.092,0.996-2.551,1.494-4.376,1.494
		c-1.581,0-2.796-0.403-3.643-1.213c-0.848-0.809-1.271-1.956-1.271-3.442c0-1.748,0.55-3.108,1.65-4.081
		c1.1-0.972,2.636-1.458,4.608-1.458c1.499,0,2.652,0.409,3.459,1.226S191.638,12.427,191.638,13.947z M188.704,14.608
		c0-2.682-0.945-4.022-2.836-4.022c-0.815,0-1.39,0.271-1.724,0.81c-0.334,0.54-0.501,1.439-0.501,2.698
		c0,2.682,0.97,4.022,2.909,4.022c0.766,0,1.316-0.278,1.65-0.834S188.704,15.834,188.704,14.608z"/>
	<path fill="#FFFFFF" d="M216.158,11.246c-0.44,0.62-1.125,0.994-2.054,1.125c-0.44-0.57-0.872-0.855-1.296-0.855
		c-0.473,0-1.051,0.399-1.735,1.197v6.454h-3.057c0.212-1.597,0.318-3.219,0.318-4.865c0-1.271-0.058-2.118-0.171-2.542
		c-0.163-0.505-0.489-0.758-0.979-0.758c-0.391,0-0.872,0.041-1.442,0.122l-0.22-0.538c2.418-0.847,4.04-1.271,4.868-1.271
		c0.454,0,0.682,0.537,0.682,1.613v0.587c1.457-1.467,2.57-2.2,3.341-2.2C215.15,9.315,215.731,9.958,216.158,11.246z"/>
	<path fill="#FFFFFF" d="M247.865,10.879c1.939-1.043,3.275-1.564,4.009-1.564c0.407,0,0.759,0.317,1.052,0.953
		c0.179,0.391,0.521,1.369,1.026,2.934c0.424,1.336,0.726,2.2,0.905,2.591c0.244,0.604,0.48,0.905,0.709,0.905
		c0.357,0,0.725-0.357,1.1-1.072c0.44-0.861,0.66-1.909,0.66-3.144c0-0.228-0.013-0.581-0.037-1.061
		c-0.024-0.479-0.036-0.849-0.036-1.108c0-0.796,0.741-1.194,2.225-1.194c0.342,0,0.514,0.18,0.514,0.537
		c0,1.203-0.318,2.472-0.954,3.805c-0.848,1.772-1.769,3.219-2.762,4.341c-0.897,1.008-1.622,1.512-2.176,1.512
		c-0.555,0-1.02-0.366-1.394-1.1c-0.163-0.343-0.53-1.386-1.101-3.13c-0.505-1.564-0.904-2.574-1.198-3.031
		c-0.358-0.619-0.831-0.929-1.417-0.929c-0.229,0-0.53,0.073-0.905,0.22L247.865,10.879z"/>
	<path fill="#FFFFFF" d="M273.705,10.61c2.434-0.863,4.097-1.295,4.99-1.295c0.389,0,0.584,0.586,0.584,1.76
		c0,0.146,0,0.399,0,0.758c0,0.375,0,0.668,0,0.88v6.454h-3.031c0.195-1.694,0.293-3.316,0.293-4.865
		c0-1.271-0.058-2.118-0.171-2.542c-0.163-0.505-0.489-0.758-0.979-0.758c-0.407,0-0.896,0.041-1.467,0.122L273.705,10.61z
		 M278.912,2.86c0.163,0.359,0.245,0.767,0.245,1.222c0,1.011-0.147,1.688-0.44,2.029c-0.358,0.424-1.19,0.726-2.494,0.904
		c0.082-0.685,0.123-1.214,0.123-1.589c0-0.7-0.114-1.368-0.343-2.004c1.304-0.44,2.159-0.66,2.567-0.66
		C278.732,2.763,278.847,2.795,278.912,2.86z"/>
	<path fill="#FFFFFF" d="M293.581,1.45c2.656-0.966,4.408-1.45,5.256-1.45c0.375,0,0.563,0.171,0.563,0.513
		c0-0.13-0.041,0.322-0.122,1.355c-0.082,1.034-0.122,2.136-0.122,3.308c0,0.473,0,1.115,0,1.929c0,0.798,0,1.367,0,1.71v10.4
		h-3.105c0.229-1.92,0.343-5.102,0.343-9.545V7.644c0-2.311-0.057-3.808-0.17-4.492c-0.162-0.878-0.518-1.318-1.066-1.318
		c-0.518,0-0.969,0.057-1.357,0.171L293.581,1.45z"/>
	<path fill="#FFFFFF" d="M313.676,1.45c2.656-0.966,4.408-1.45,5.256-1.45c0.375,0,0.563,0.171,0.563,0.513
		c0-0.13-0.041,0.322-0.122,1.355c-0.082,1.034-0.122,2.136-0.122,3.308c0,0.473,0,1.115,0,1.929c0,0.798,0,1.367,0,1.71v10.4
		h-3.105c0.229-1.92,0.343-5.102,0.343-9.545V7.644c0-2.311-0.057-3.808-0.17-4.492c-0.162-0.878-0.518-1.318-1.066-1.318
		c-0.518,0-0.969,0.057-1.357,0.171L313.676,1.45z"/>
	<path fill="#FFFFFF" d="M346.459,18.091c-1.744,0.848-3.17,1.271-4.278,1.271c-0.767,0-1.198-0.497-1.296-1.491
		c-0.929,0.994-2.086,1.491-3.471,1.491c-0.783,0-1.398-0.216-1.846-0.647c-0.449-0.432-0.673-1.006-0.673-1.724
		c0-1.011,0.424-1.907,1.271-2.689c0.766-0.717,1.54-1.075,2.322-1.075c0.603,0,1.328,0.171,2.176,0.514
		c0.032-0.395,0.049-0.666,0.049-0.814c0-0.707-0.139-1.212-0.415-1.517c-0.277-0.304-0.742-0.456-1.394-0.456
		c-0.881,0-1.81,0.171-2.787,0.513l0.171-1.1c1.581-0.7,3.292-1.051,5.134-1.051c0.766,0,1.296,0.154,1.589,0.464
		c0.294,0.31,0.44,0.864,0.44,1.662c0,0.229-0.033,0.677-0.098,1.345c-0.065,0.669-0.098,1.223-0.098,1.663
		c0,1.287,0.098,2.163,0.293,2.628c0.195,0.464,0.578,0.696,1.149,0.696c0.325,0,0.839-0.064,1.54-0.195L346.459,18.091z
		 M340.616,17.051c0-0.514,0-0.971,0-1.372c0-0.369,0-0.65,0-0.843c-0.594-0.128-1.155-0.192-1.685-0.192s-0.89,0.12-1.083,0.36
		c-0.192,0.241-0.288,0.69-0.288,1.349c0,0.946,0.441,1.42,1.323,1.42C339.461,17.773,340.039,17.533,340.616,17.051z"/>
	<path fill="#FFFFFF" d="M359.293,10.61c2.434-0.863,4.097-1.295,4.99-1.295c0.389,0,0.584,0.586,0.584,1.76
		c0,0.146,0,0.399,0,0.758c0,0.375,0,0.668,0,0.88v6.454h-3.031c0.195-1.694,0.293-3.316,0.293-4.865
		c0-1.271-0.058-2.118-0.171-2.542c-0.163-0.505-0.489-0.758-0.979-0.758c-0.407,0-0.896,0.041-1.467,0.122L359.293,10.61z
		 M364.5,2.86c0.163,0.359,0.245,0.767,0.245,1.222c0,1.011-0.147,1.688-0.44,2.029c-0.358,0.424-1.19,0.726-2.494,0.904
		c0.082-0.685,0.123-1.214,0.123-1.589c0-0.7-0.114-1.368-0.343-2.004c1.304-0.44,2.159-0.66,2.567-0.66
		C364.32,2.763,364.435,2.795,364.5,2.86z"/>
	<path fill="#FFFFFF" d="M394.766,18.042c-1.923,0.881-3.521,1.32-4.792,1.32c-0.488,0-0.827-0.13-1.015-0.391
		s-0.28-0.717-0.28-1.369c0-0.163,0.016-0.623,0.049-1.382c0.032-0.758,0.049-1.43,0.049-2.017c0-1.189-0.058-1.972-0.171-2.347
		c-0.131-0.456-0.433-0.685-0.905-0.685c-0.7,0-1.572,0.375-2.615,1.125v6.918h-3.057c0.212-1.646,0.318-3.26,0.318-4.841
		c0-1.304-0.058-2.167-0.171-2.591c-0.163-0.521-0.489-0.782-0.979-0.782c-0.424,0-0.921,0.058-1.491,0.171l-0.22-0.527
		c2.401-0.887,4.017-1.33,4.844-1.33c0.503,0,0.755,0.521,0.755,1.564v0.366c2.028-1.287,3.868-1.931,5.521-1.931
		c0.817,0,1.227,0.351,1.227,1.054c0-0.098-0.053,0.331-0.159,1.287c-0.106,0.957-0.159,1.974-0.159,3.053
		c0,1.177,0.082,1.953,0.245,2.329c0.179,0.458,0.578,0.687,1.197,0.687c0.277,0,0.808-0.073,1.59-0.22L394.766,18.042z"/>
	<path fill="#FFFFFF" d="M411.827,10.61c-0.275,0.229-0.414,0.596-0.414,1.101c0,0.407,0.252,0.709,0.755,0.904
		c0.13,0.049,0.819,0.212,2.068,0.489c1.671,0.375,2.507,1.279,2.507,2.713c0,1.076-0.425,1.936-1.271,2.579
		c-0.848,0.645-2.029,0.966-3.545,0.966c-1.304,0-2.444-0.171-3.423-0.513c0.082-0.521,0.163-1.353,0.245-2.494h0.439
		c0.098,1.239,1.255,1.858,3.472,1.858c0.978,0,1.467-0.473,1.467-1.418c0-0.456-0.188-0.791-0.563-1.003
		c-0.293-0.162-0.889-0.342-1.784-0.537c-1.174-0.245-1.973-0.529-2.396-0.856c-0.522-0.391-0.783-1.002-0.783-1.833
		c0-1.06,0.44-1.874,1.32-2.444c0.831-0.538,1.972-0.807,3.423-0.807c0.88,0,1.866,0.171,2.958,0.513
		c-0.13,1.06-0.211,1.891-0.243,2.494h-0.413c-0.065-0.521-0.394-0.966-0.986-1.333c-0.592-0.366-1.261-0.55-2.006-0.55
		C412.297,10.439,412.021,10.497,411.827,10.61z"/>
</g>
</svg>
