<?xml version="1.0" encoding="utf-8"?>
<!-- Generator: Adobe Illustrator 16.0.0, SVG Export Plug-In . SVG Version: 6.00 Build 0)  -->
<!DOCTYPE svg PUBLIC "-//W3C//DTD SVG 1.1//EN" "http://www.w3.org/Graphics/SVG/1.1/DTD/svg11.dtd">
<svg version="1.1" id="Layer_1" xmlns="http://www.w3.org/2000/svg" xmlns:xlink="http://www.w3.org/1999/xlink" x="0px" y="0px"
	 width="1066.007px" height="72.889px" viewBox="-0.817 -30.967 1066.007 72.889"
	 enable-background="new -0.817 -30.967 1066.007 72.889" xml:space="preserve">
<g enable-background="new    ">
	<path fill="#FFFFFF" stroke="#000000" stroke-width="2" stroke-miterlimit="10" d="M46.726-19.09
		c-1.952,0.163-3.518,0.895-4.697,2.195c-0.692,0.773-1.688,2.481-2.989,5.124c-5.775,11.591-10.431,22.348-13.969,32.27h-4.575
		C16.185,8.503,11.712-2.376,7.076-12.135c-1.139-2.358-2.115-4.005-2.928-4.941c-1.058-1.179-2.379-1.85-3.965-2.013v-1.342
		c3.09,0.162,6.506,0.243,10.248,0.243c-0.488,0,2.236-0.081,8.174-0.243v1.342c-2.766,0.122-4.148,1.098-4.148,2.928
		c0,1.302,1.016,4.453,3.05,9.455c3.904,9.557,6.425,15.86,7.564,18.91c4.392-10.288,6.913-16.267,7.564-17.935
		c1.87-4.758,2.806-8.03,2.806-9.82c0-2.196-1.342-3.375-4.026-3.538v-1.342c0.772,0,2.114,0.061,4.026,0.183
		c1.667,0.082,2.968,0.122,3.904,0.122c1.016,0,2.297-0.04,3.843-0.122c1.87-0.122,3.05-0.183,3.538-0.183V-19.09z"/>
	<path fill="#FFFFFF" stroke="#000000" stroke-width="2" stroke-miterlimit="10" d="M75.945-0.912
		c6.073-2.155,10.223-3.233,12.451-3.233c0.971,0,1.458,1.465,1.458,4.393c0,0.366,0,0.997,0,1.891c0,0.937,0,1.668,0,2.196v16.104
		h-7.564c0.488-4.229,0.732-8.274,0.732-12.139c0-3.172-0.143-5.286-0.427-6.344c-0.407-1.26-1.22-1.892-2.44-1.892
		c-1.017,0-2.237,0.103-3.66,0.306L75.945-0.912z M88.938-20.249c0.406,0.895,0.61,1.912,0.61,3.05c0,2.522-0.366,4.209-1.098,5.063
		c-0.895,1.058-2.969,1.81-6.222,2.257c0.203-1.708,0.305-3.029,0.305-3.965c0-1.748-0.285-3.416-0.854-5.002
		c3.253-1.099,5.388-1.647,6.405-1.647C88.49-20.493,88.775-20.411,88.938-20.249z"/>
	<path fill="#FFFFFF" stroke="#000000" stroke-width="2" stroke-miterlimit="10" d="M124.989-23.769
		c6.628-2.411,11-3.616,13.115-3.616c0.935,0,1.403,0.427,1.403,1.278c0-0.323-0.102,0.803-0.305,3.382
		c-0.204,2.579-0.305,5.331-0.305,8.255c0,1.179,0,2.782,0,4.813c0,1.99,0,3.412,0,4.266V20.56h-7.747
		c0.569-4.791,0.854-12.73,0.854-23.817v-5.056c0-5.766-0.141-9.502-0.423-11.208c-0.404-2.192-1.291-3.29-2.661-3.29
		c-1.291,0-2.418,0.144-3.386,0.428L124.989-23.769z"/>
	<path fill="#FFFFFF" stroke="#000000" stroke-width="2" stroke-miterlimit="10" d="M174.582-23.769
		c6.628-2.411,11-3.616,13.115-3.616c0.935,0,1.403,0.427,1.403,1.278c0-0.323-0.102,0.803-0.305,3.382
		c-0.204,2.579-0.305,5.331-0.305,8.255c0,1.179,0,2.782,0,4.813c0,1.99,0,3.412,0,4.266V20.56h-7.747
		c0.569-4.791,0.854-12.73,0.854-23.817v-5.056c0-5.766-0.141-9.502-0.423-11.208c-0.404-2.192-1.291-3.29-2.661-3.29
		c-1.291,0-2.418,0.144-3.386,0.428L174.582-23.769z"/>
	<path fill="#FFFFFF" stroke="#000000" stroke-width="2" stroke-miterlimit="10" d="M255.835,17.754
		c-4.353,2.115-7.91,3.172-10.676,3.172c-1.912,0-2.988-1.24-3.232-3.721c-2.318,2.48-5.207,3.721-8.662,3.721
		c-1.952,0-3.488-0.539-4.605-1.616c-1.119-1.077-1.678-2.511-1.678-4.301c0-2.521,1.057-4.758,3.172-6.71
		c1.911-1.789,3.843-2.684,5.795-2.684c1.504,0,3.314,0.427,5.43,1.28c0.08-0.984,0.121-1.661,0.121-2.03
		c0-1.764-0.346-3.025-1.037-3.784s-1.851-1.139-3.477-1.139c-2.196,0-4.514,0.427-6.954,1.28l0.427-2.745
		c3.944-1.748,8.215-2.623,12.811-2.623c1.91,0,3.232,0.388,3.965,1.159c0.732,0.773,1.098,2.156,1.098,4.148
		c0,0.569-0.082,1.688-0.244,3.354c-0.162,1.668-0.244,3.051-0.244,4.148c0,3.213,0.244,5.398,0.732,6.558s1.443,1.738,2.867,1.738
		c0.813,0,2.094-0.162,3.843-0.488L255.835,17.754z M241.255,15.159c0-1.28,0-2.423,0-3.423c0-0.921,0-1.623,0-2.103
		c-1.48-0.32-2.882-0.48-4.202-0.48c-1.321,0-2.222,0.3-2.702,0.9s-0.721,1.723-0.721,3.363c0,2.363,1.102,3.544,3.303,3.544
		C238.373,16.961,239.813,16.361,241.255,15.159z"/>
	<path fill="#FFFFFF" stroke="#000000" stroke-width="2" stroke-miterlimit="10" d="M297.919-0.912
		c-0.688,0.57-1.032,1.485-1.032,2.745c0,1.017,0.627,1.769,1.882,2.257c0.324,0.122,2.045,0.529,5.162,1.22
		c4.168,0.937,6.254,3.193,6.254,6.771c0,2.684-1.059,4.829-3.172,6.436c-2.115,1.606-5.063,2.409-8.846,2.409
		c-3.254,0-6.1-0.427-8.539-1.281c0.203-1.301,0.406-3.375,0.609-6.222h1.098c0.244,3.091,3.131,4.636,8.662,4.636
		c2.44,0,3.66-1.179,3.66-3.538c0-1.138-0.468-1.972-1.402-2.501c-0.732-0.405-2.217-0.854-4.453-1.342
		c-2.928-0.609-4.922-1.321-5.979-2.135c-1.302-0.976-1.951-2.501-1.951-4.575c0-2.643,1.098-4.676,3.293-6.1
		c2.074-1.342,4.92-2.014,8.541-2.014c2.195,0,4.656,0.428,7.381,1.281c-0.324,2.645-0.527,4.718-0.607,6.223h-1.031
		c-0.162-1.302-0.982-2.41-2.459-3.325c-1.478-0.915-3.146-1.372-5.007-1.372C299.093-1.339,298.403-1.196,297.919-0.912z"/>
	<path fill="#FFFFFF" stroke="#000000" stroke-width="2" stroke-miterlimit="10" d="M414.493-4.145l-0.67,3.782h-10.432v14.118
		l0.305,15.401l-5.979,2.444l-2.072,0.184c0.609-9.983,0.914-20.698,0.914-32.147h-4.697l0.68-2.921
		c1.648-0.486,2.986-1.399,4.018-2.739c-0.051-2.313-0.102-4.726-0.152-7.242c-0.102-2.272-0.152-3.55-0.152-3.834
		c0-2.028,0.426-3.591,1.281-4.687c0.854-1.096,2.582-2.282,5.184-3.561c2.604-1.277,5.104-1.917,7.504-1.917
		c0.977,0,1.869,0.712,2.684,2.135c0.691,1.22,1.037,2.196,1.037,2.928c0,0.488-0.432,1.007-1.297,1.556s-1.619,0.823-2.262,0.823
		c-0.4,0-1.125-0.6-2.17-1.799s-1.93-1.8-2.652-1.8c-1.449,0-2.172,4.128-2.172,12.383c0,1.22,0,3.701,0,7.442L414.493-4.145z"/>
	<path fill="#FFFFFF" stroke="#000000" stroke-width="2" stroke-miterlimit="10" d="M473.969,7.412c0,4.118-1.363,7.42-4.088,9.906
		s-6.365,3.729-10.918,3.729c-3.945,0-6.975-1.009-9.09-3.026s-3.172-4.882-3.172-8.591c0-4.362,1.373-7.756,4.117-10.182
		c2.746-2.425,6.578-3.638,11.5-3.638c3.74,0,6.617,1.02,8.631,3.058C472.964,0.706,473.969,3.621,473.969,7.412z M466.649,9.064
		c0-6.691-2.359-10.036-7.076-10.036c-2.033,0-3.467,0.674-4.301,2.02c-0.834,1.347-1.25,3.59-1.25,6.731
		c0,6.691,2.42,10.037,7.26,10.037c1.91,0,3.283-0.693,4.117-2.081C466.231,14.348,466.649,12.124,466.649,9.064z"/>
	<path fill="#FFFFFF" stroke="#000000" stroke-width="2" stroke-miterlimit="10" d="M534.602,0.674
		c-1.098,1.546-2.807,2.481-5.123,2.806c-1.098-1.423-2.176-2.135-3.234-2.135c-1.18,0-2.623,0.997-4.33,2.989v16.104h-7.625
		c0.527-3.984,0.793-8.03,0.793-12.139c0-3.172-0.143-5.286-0.428-6.344c-0.406-1.26-1.219-1.892-2.439-1.892
		c-0.977,0-2.176,0.103-3.6,0.306l-0.549-1.342c6.033-2.114,10.082-3.173,12.146-3.173c1.135,0,1.701,1.343,1.701,4.026v1.464
		c3.637-3.66,6.416-5.49,8.336-5.49C532.089-4.145,533.54-2.538,534.602,0.674z"/>
	<path fill="#FFFFFF" stroke="#000000" stroke-width="2" stroke-miterlimit="10" d="M612.622-0.241
		c4.838-2.602,8.174-3.904,10.004-3.904c1.016,0,1.891,0.794,2.623,2.38c0.445,0.976,1.301,3.416,2.561,7.319
		c1.057,3.335,1.811,5.49,2.258,6.466c0.609,1.506,1.199,2.258,1.77,2.258c0.893,0,1.809-0.892,2.744-2.676
		c1.098-2.148,1.646-4.763,1.646-7.844c0-0.567-0.029-1.449-0.092-2.645c-0.061-1.195-0.09-2.118-0.09-2.767
		c0-1.986,1.85-2.979,5.551-2.979c0.854,0,1.281,0.447,1.281,1.339c0,3.002-0.793,6.167-2.379,9.493
		c-2.115,4.423-4.414,8.033-6.895,10.831c-2.236,2.517-4.047,3.773-5.428,3.773c-1.383,0-2.543-0.915-3.479-2.745
		c-0.406-0.854-1.32-3.456-2.744-7.808c-1.262-3.904-2.258-6.425-2.988-7.564c-0.896-1.545-2.074-2.317-3.539-2.317
		c-0.57,0-1.322,0.183-2.256,0.549L612.622-0.241z"/>
	<path fill="#FFFFFF" stroke="#000000" stroke-width="2" stroke-miterlimit="10" d="M676.548-0.912
		c6.074-2.155,10.225-3.233,12.451-3.233c0.971,0,1.457,1.465,1.457,4.393c0,0.366,0,0.997,0,1.891c0,0.937,0,1.668,0,2.196v16.104
		h-7.563c0.486-4.229,0.73-8.274,0.73-12.139c0-3.172-0.143-5.286-0.426-6.344c-0.408-1.26-1.221-1.892-2.441-1.892
		c-1.016,0-2.236,0.103-3.658,0.306L676.548-0.912z M689.542-20.249c0.406,0.895,0.609,1.912,0.609,3.05
		c0,2.522-0.365,4.209-1.098,5.063c-0.895,1.058-2.969,1.81-6.223,2.257c0.203-1.708,0.307-3.029,0.307-3.965
		c0-1.748-0.285-3.416-0.855-5.002c3.254-1.099,5.389-1.647,6.406-1.647C689.094-20.493,689.378-20.411,689.542-20.249z"/>
	<path fill="#FFFFFF" stroke="#000000" stroke-width="2" stroke-miterlimit="10" d="M725.593-23.769
		c6.627-2.411,11-3.616,13.115-3.616c0.934,0,1.402,0.427,1.402,1.278c0-0.323-0.102,0.803-0.305,3.382
		c-0.205,2.579-0.305,5.331-0.305,8.255c0,1.179,0,2.782,0,4.813c0,1.99,0,3.412,0,4.266V20.56h-7.748
		c0.57-4.791,0.855-12.73,0.855-23.817v-5.056c0-5.766-0.143-9.502-0.424-11.208c-0.404-2.192-1.291-3.29-2.662-3.29
		c-1.289,0-2.418,0.144-3.387,0.428L725.593-23.769z"/>
	<path fill="#FFFFFF" stroke="#000000" stroke-width="2" stroke-miterlimit="10" d="M775.184-23.769
		c6.629-2.411,11-3.616,13.115-3.616c0.936,0,1.404,0.427,1.404,1.278c0-0.323-0.104,0.803-0.307,3.382s-0.305,5.331-0.305,8.255
		c0,1.179,0,2.782,0,4.813c0,1.99,0,3.412,0,4.266V20.56h-7.746c0.568-4.791,0.854-12.73,0.854-23.817v-5.056
		c0-5.766-0.141-9.502-0.424-11.208c-0.404-2.192-1.289-3.29-2.66-3.29c-1.291,0-2.418,0.144-3.387,0.428L775.184-23.769z"/>
	<path fill="#FFFFFF" stroke="#000000" stroke-width="2" stroke-miterlimit="10" d="M856.438,17.754
		c-4.354,2.115-7.91,3.172-10.676,3.172c-1.912,0-2.988-1.24-3.232-3.721c-2.318,2.48-5.207,3.721-8.662,3.721
		c-1.953,0-3.488-0.539-4.605-1.616c-1.119-1.077-1.678-2.511-1.678-4.301c0-2.521,1.057-4.758,3.172-6.71
		c1.91-1.789,3.844-2.684,5.795-2.684c1.504,0,3.314,0.427,5.43,1.28c0.08-0.984,0.121-1.661,0.121-2.03
		c0-1.764-0.346-3.025-1.037-3.784s-1.852-1.139-3.477-1.139c-2.195,0-4.514,0.427-6.953,1.28l0.426-2.745
		c3.943-1.748,8.215-2.623,12.811-2.623c1.91,0,3.232,0.388,3.965,1.159c0.732,0.773,1.098,2.156,1.098,4.148
		c0,0.569-0.082,1.688-0.244,3.354c-0.162,1.668-0.244,3.051-0.244,4.148c0,3.213,0.244,5.398,0.732,6.558s1.443,1.738,2.867,1.738
		c0.813,0,2.094-0.162,3.844-0.488L856.438,17.754z M841.858,15.159c0-1.28,0-2.423,0-3.423c0-0.921,0-1.623,0-2.103
		c-1.48-0.32-2.883-0.48-4.201-0.48c-1.322,0-2.223,0.3-2.703,0.9s-0.721,1.723-0.721,3.363c0,2.363,1.102,3.544,3.303,3.544
		C838.975,16.961,840.417,16.361,841.858,15.159z"/>
	<path fill="#FFFFFF" stroke="#000000" stroke-width="2" stroke-miterlimit="10" d="M887.913-0.912
		c6.074-2.155,10.223-3.233,12.451-3.233c0.971,0,1.457,1.465,1.457,4.393c0,0.366,0,0.997,0,1.891c0,0.937,0,1.668,0,2.196v16.104
		h-7.564c0.488-4.229,0.732-8.274,0.732-12.139c0-3.172-0.143-5.286-0.428-6.344c-0.406-1.26-1.219-1.892-2.439-1.892
		c-1.018,0-2.236,0.103-3.66,0.306L887.913-0.912z M900.905-20.249c0.406,0.895,0.611,1.912,0.611,3.05
		c0,2.522-0.367,4.209-1.098,5.063c-0.896,1.058-2.971,1.81-6.223,2.257c0.203-1.708,0.305-3.029,0.305-3.965
		c0-1.748-0.285-3.416-0.854-5.002c3.252-1.099,5.387-1.647,6.404-1.647C900.458-20.493,900.743-20.411,900.905-20.249z"/>
	<path fill="#FFFFFF" stroke="#000000" stroke-width="2" stroke-miterlimit="10" d="M975.876,17.632
		c-4.799,2.196-8.785,3.294-11.957,3.294c-1.219,0-2.064-0.326-2.531-0.976c-0.467-0.65-0.701-1.789-0.701-3.416
		c0-0.406,0.039-1.556,0.121-3.446c0.082-1.892,0.123-3.569,0.123-5.033c0-2.968-0.143-4.92-0.428-5.855
		c-0.326-1.139-1.078-1.708-2.256-1.708c-1.75,0-3.926,0.936-6.527,2.806V20.56h-7.625c0.527-4.106,0.793-8.133,0.793-12.077
		c0-3.254-0.143-5.408-0.428-6.467c-0.406-1.301-1.219-1.952-2.439-1.952c-1.059,0-2.299,0.144-3.721,0.428l-0.549-1.315
		c5.992-2.213,10.021-3.321,12.086-3.321c1.254,0,1.883,1.303,1.883,3.904v0.915c5.061-3.212,9.652-4.819,13.773-4.819
		c2.041,0,3.063,0.877,3.063,2.631c0-0.244-0.133,0.826-0.396,3.212c-0.266,2.387-0.396,4.925-0.396,7.617
		c0,2.937,0.203,4.874,0.609,5.812c0.447,1.142,1.443,1.713,2.99,1.713c0.689,0,2.012-0.183,3.965-0.549L975.876,17.632z"/>
	<path fill="#FFFFFF" stroke="#000000" stroke-width="2" stroke-miterlimit="10" d="M1017.897-0.912
		c-0.688,0.57-1.031,1.485-1.031,2.745c0,1.017,0.627,1.769,1.883,2.257c0.324,0.122,2.043,0.529,5.16,1.22
		c4.17,0.937,6.254,3.193,6.254,6.771c0,2.684-1.057,4.829-3.172,6.436c-2.113,1.606-5.063,2.409-8.844,2.409
		c-3.254,0-6.1-0.427-8.541-1.281c0.203-1.301,0.406-3.375,0.611-6.222h1.098c0.244,3.091,3.131,4.636,8.662,4.636
		c2.439,0,3.66-1.179,3.66-3.538c0-1.138-0.469-1.972-1.404-2.501c-0.73-0.405-2.217-0.854-4.453-1.342
		c-2.928-0.609-4.92-1.321-5.977-2.135c-1.303-0.976-1.953-2.501-1.953-4.575c0-2.643,1.098-4.676,3.295-6.1
		c2.074-1.342,4.92-2.014,8.539-2.014c2.197,0,4.656,0.428,7.381,1.281c-0.324,2.645-0.525,4.718-0.607,6.223h-1.031
		c-0.162-1.302-0.98-2.41-2.459-3.325c-1.477-0.915-3.145-1.372-5.006-1.372C1019.071-1.339,1018.384-1.196,1017.897-0.912z"/>
</g>
</svg>
